<svg width="20" height="20" viewBox="0 0 20 20" fill="none" xmlns="http://www.w3.org/2000/svg">
<path d="M14.3753 7.93296C14.3753 5.33836 12.4157 3.2333 10.0003 3.2333C7.58496 3.2333 5.62533 5.33836 5.62533 7.93296C5.62533 8.33766 5.76204 8.96428 6.09017 9.79978C6.40918 10.6092 6.86187 11.5034 7.3814 12.4074C8.24729 13.9152 9.24989 15.3708 10.0003 16.4087C10.7538 15.3708 11.7564 13.9152 12.6192 12.4074C13.1388 11.5034 13.5915 10.6092 13.9105 9.79978C14.2386 8.96428 14.3753 8.33766 14.3753 7.93296ZM15.8337 7.93296C15.8337 10.7854 12.279 15.8636 10.7204 17.9589C10.3467 18.4583 9.65397 18.4583 9.28027 17.9589C7.72168 15.8636 4.16699 10.7854 4.16699 7.93296C4.16699 4.47349 6.77984 1.66675 10.0003 1.66675C13.2208 1.66675 15.8337 4.47349 15.8337 7.93296ZM10.9725 7.93296C10.9725 7.65598 10.8701 7.39034 10.6878 7.19448C10.5055 6.99863 10.2582 6.8886 10.0003 6.8886C9.74248 6.8886 9.49519 6.99863 9.31286 7.19448C9.13053 7.39034 9.0281 7.65598 9.0281 7.93296C9.0281 8.20995 9.13053 8.47559 9.31286 8.67145C9.49519 8.8673 9.74248 8.97733 10.0003 8.97733C10.2582 8.97733 10.5055 8.8673 10.6878 8.67145C10.8701 8.47559 10.9725 8.20995 10.9725 7.93296ZM7.56977 7.93296C7.56977 7.2405 7.82585 6.57641 8.28166 6.08676C8.73748 5.59712 9.3557 5.32204 10.0003 5.32204C10.6449 5.32204 11.2632 5.59712 11.719 6.08676C12.1748 6.57641 12.4309 7.2405 12.4309 7.93296C12.4309 8.62542 12.1748 9.28952 11.719 9.77917C11.2632 10.2688 10.6449 10.5439 10.0003 10.5439C9.3557 10.5439 8.73748 10.2688 8.28166 9.77917C7.82585 9.28952 7.56977 8.62542 7.56977 7.93296Z" fill="#3995EA"/>
</svg>
