<svg width="32" height="32" viewBox="0 0 32 32" fill="none" xmlns="http://www.w3.org/2000/svg">
<path d="M13.7131 2.80826C14.314 3.12596 14.5432 3.88115 14.2325 4.49571L10.077 12.6673H21.9224L17.7668 4.49571C17.4562 3.88115 17.6904 3.12596 18.2862 2.80826C18.8821 2.49057 19.6205 2.73014 19.9362 3.3395L24.6775 12.6673H26.5159H29.0367H29.4441C30.1214 12.6673 30.6663 13.2246 30.6663 13.9173C30.6663 14.61 30.1214 15.1672 29.4441 15.1672H28.4256L25.5788 26.8075C25.2173 28.2918 23.9136 29.3334 22.4163 29.3334H9.58301C8.08579 29.3334 6.78208 28.2918 6.42051 26.8075L3.57375 15.1672H2.55523C1.87792 15.1672 1.33301 14.61 1.33301 13.9173C1.33301 13.2246 1.87792 12.6673 2.55523 12.6673H2.96264H5.48347H7.3219L12.0631 3.3395C12.3737 2.72493 13.1122 2.49057 13.7131 2.80826ZM6.09458 15.1672L8.79366 26.2033C8.88532 26.5731 9.21125 26.8335 9.58301 26.8335H22.4163C22.7881 26.8335 23.114 26.5731 23.2057 26.2033L25.9048 15.1672H6.09458ZM12.7404 18.9171V23.0836C12.7404 23.7763 12.1955 24.3336 11.5182 24.3336C10.8409 24.3336 10.296 23.7763 10.296 23.0836V18.9171C10.296 18.2244 10.8409 17.6671 11.5182 17.6671C12.1955 17.6671 12.7404 18.2244 12.7404 18.9171ZM15.9997 17.6671C16.677 17.6671 17.2219 18.2244 17.2219 18.9171V23.0836C17.2219 23.7763 16.677 24.3336 15.9997 24.3336C15.3224 24.3336 14.7775 23.7763 14.7775 23.0836V18.9171C14.7775 18.2244 15.3224 17.6671 15.9997 17.6671ZM21.7034 18.9171V23.0836C21.7034 23.7763 21.1585 24.3336 20.4812 24.3336C19.8038 24.3336 19.2589 23.7763 19.2589 23.0836V18.9171C19.2589 18.2244 19.8038 17.6671 20.4812 17.6671C21.1585 17.6671 21.7034 18.2244 21.7034 18.9171Z" fill="url(#paint0_linear_1_686)"/>
<defs>
<linearGradient id="paint0_linear_1_686" x1="15.9997" y1="2.66675" x2="15.9997" y2="29.3334" gradientUnits="userSpaceOnUse">
<stop stop-color="#3490E4"/>
<stop offset="1" stop-color="#1F69D7"/>
</linearGradient>
</defs>
</svg>
