<svg width="22" height="22" viewBox="0 0 22 22" fill="none" xmlns="http://www.w3.org/2000/svg">
<path d="M9.47507 2.20545C9.87569 2.41725 10.0285 2.92071 9.82137 3.33042L7.051 8.77815H14.9479L12.1775 3.33042C11.9704 2.92071 12.1266 2.41725 12.5238 2.20545C12.9211 1.99366 13.4133 2.15337 13.6238 2.55961L16.7846 8.77815H18.0103H19.6908H19.9624C20.414 8.77815 20.7772 9.14967 20.7772 9.61146C20.7772 10.0732 20.414 10.4448 19.9624 10.4448H19.2834L17.3856 18.2049C17.1445 19.1945 16.2754 19.8889 15.2772 19.8889H6.72168C5.72353 19.8889 4.8544 19.1945 4.61335 18.2049L2.71551 10.4448H2.03649C1.58495 10.4448 1.22168 10.0732 1.22168 9.61146C1.22168 9.14967 1.58495 8.77815 2.03649 8.77815H2.3081H3.98865H5.21427L8.37507 2.55961C8.58217 2.1499 9.07446 1.99366 9.47507 2.20545ZM4.39606 10.4448L6.19545 17.8022C6.25656 18.0487 6.47384 18.2223 6.72168 18.2223H15.2772C15.5251 18.2223 15.7424 18.0487 15.8035 17.8022L17.6029 10.4448H4.39606ZM8.82662 12.9447V15.7224C8.82662 16.1842 8.46335 16.5557 8.0118 16.5557C7.56026 16.5557 7.19699 16.1842 7.19699 15.7224V12.9447C7.19699 12.4829 7.56026 12.1114 8.0118 12.1114C8.46335 12.1114 8.82662 12.4829 8.82662 12.9447ZM10.9995 12.1114C11.451 12.1114 11.8143 12.4829 11.8143 12.9447V15.7224C11.8143 16.1842 11.451 16.5557 10.9995 16.5557C10.5479 16.5557 10.1846 16.1842 10.1846 15.7224V12.9447C10.1846 12.4829 10.5479 12.1114 10.9995 12.1114ZM14.8019 12.9447V15.7224C14.8019 16.1842 14.4387 16.5557 13.9871 16.5557C13.5356 16.5557 13.1723 16.1842 13.1723 15.7224V12.9447C13.1723 12.4829 13.5356 12.1114 13.9871 12.1114C14.4387 12.1114 14.8019 12.4829 14.8019 12.9447Z" fill="#474119"/>
</svg>
