<svg width="22" height="22" viewBox="0 0 22 22" fill="none" xmlns="http://www.w3.org/2000/svg">
<path d="M9.84599 19.4293L9.7505 19.3404L3.05883 13.0565C1.88626 11.9558 1.22168 10.4109 1.22168 8.79257V8.66512C1.22168 5.94608 3.1314 3.61326 5.77446 3.10344C7.27932 2.80991 8.81855 3.16138 10.0446 4.03425C10.3883 4.28144 10.7092 4.56725 10.9995 4.89554C11.1599 4.71015 11.3317 4.54021 11.5151 4.38186C11.6564 4.25826 11.8015 4.1424 11.9543 4.03425C13.1804 3.16138 14.7196 2.80991 16.2245 3.09958C18.8675 3.6094 20.7772 5.94608 20.7772 8.66512V8.79257C20.7772 10.4109 20.1127 11.9558 18.9401 13.0565L12.2484 19.3404L12.1529 19.4293C11.8397 19.7228 11.4272 19.8889 10.9995 19.8889C10.5717 19.8889 10.1592 19.7267 9.84599 19.4293ZM10.354 6.94641C10.3387 6.93482 10.3272 6.91937 10.3158 6.90392L9.63592 6.13147L9.6321 6.12761C8.7498 5.12728 7.41682 4.67153 6.11821 4.92258C4.33835 5.26632 3.05501 6.8344 3.05501 8.66512V8.79257C3.05501 9.89332 3.50953 10.9477 4.30779 11.697L10.9995 17.9809L17.6911 11.697C18.4894 10.9477 18.9439 9.89332 18.9439 8.79257V8.66512C18.9439 6.83826 17.6606 5.26632 15.8845 4.92258C14.5859 4.67153 13.2491 5.13114 12.3706 6.12761C12.3706 6.12761 12.3706 6.12761 12.3668 6.13147C12.363 6.13533 12.3668 6.13147 12.363 6.13533L11.6831 6.90778C11.6717 6.92323 11.6564 6.93482 11.6449 6.95027C11.4731 7.12407 11.2401 7.22063 10.9995 7.22063C10.7588 7.22063 10.5258 7.12407 10.354 6.95027V6.94641Z" fill="#474119"/>
</svg>
