<svg width="32" height="32" viewBox="0 0 32 32" fill="none" xmlns="http://www.w3.org/2000/svg">
<path d="M14.2695 28.6439L14.1262 28.5107L4.08874 19.0848C2.32988 17.4337 1.33301 15.1163 1.33301 12.6889V12.4977C1.33301 8.41912 4.19759 4.9199 8.16217 4.15517C10.4195 3.71487 12.7283 4.24207 14.5674 5.55138C15.083 5.92216 15.5643 6.35087 15.9997 6.84331C16.2403 6.56523 16.4981 6.31032 16.7731 6.07279C16.9851 5.8874 17.2028 5.71359 17.432 5.55138C19.271 4.24207 21.5799 3.71487 23.8372 4.14937C27.8018 4.9141 30.6663 8.41912 30.6663 12.4977V12.6889C30.6663 15.1163 29.6695 17.4337 27.9106 19.0848L17.8731 28.5107L17.7299 28.6439C17.2601 29.0842 16.6413 29.3333 15.9997 29.3333C15.358 29.3333 14.7393 29.09 14.2695 28.6439ZM15.0314 9.91961C15.0085 9.90223 14.9913 9.87906 14.9742 9.85588L13.9544 8.6972L13.9486 8.69141C12.6252 7.19091 10.6257 6.50729 8.6778 6.88386C6.00801 7.39948 4.08301 9.7516 4.08301 12.4977V12.6889C4.08301 14.34 4.76478 15.9216 5.96217 17.0455L15.9997 26.4714L26.0372 17.0455C27.2346 15.9216 27.9163 14.34 27.9163 12.6889V12.4977C27.9163 9.7574 25.9913 7.39948 23.3273 6.88386C21.3794 6.50729 19.3742 7.19671 18.0564 8.69141C18.0564 8.69141 18.0564 8.69141 18.0507 8.6972C18.045 8.703 18.0507 8.6972 18.045 8.70299L17.0252 9.86168C17.008 9.88485 16.9851 9.90223 16.9679 9.92541C16.7101 10.1861 16.3606 10.3309 15.9997 10.3309C15.6387 10.3309 15.2893 10.1861 15.0314 9.92541V9.91961Z" fill="url(#paint0_linear_1_690)"/>
<defs>
<linearGradient id="paint0_linear_1_690" x1="15.9997" y1="4" x2="15.9997" y2="29.3333" gradientUnits="userSpaceOnUse">
<stop stop-color="#3490E4"/>
<stop offset="1" stop-color="#1F69D7"/>
</linearGradient>
</defs>
</svg>
