<svg width="134" height="60" viewBox="0 0 134 60" fill="none" xmlns="http://www.w3.org/2000/svg">
<g clip-path="url(#clip0_1_651)">
<path d="M74.2478 16.8632C73.4167 16.1628 72.4162 15.8124 71.2464 15.8118H62.7528C61.5827 15.8118 60.5635 16.1622 59.6952 16.8632C58.9017 17.565 58.5049 18.3953 58.5049 19.3541V22.8968H75.4917V19.3541C75.4926 18.395 75.0779 17.5647 74.2478 16.8632Z" fill="#3089E2"/>
<path d="M46.1629 0V37.0661H37.6684V29.9833H20.683C18.3046 29.9821 16.2858 29.2995 14.6263 27.9354C13.0026 26.5338 12.191 24.855 12.1916 22.8991V8.72685H20.683V19.3542C20.683 20.3514 21.0791 21.2001 21.8715 21.9005C22.7416 22.5642 23.7617 22.8963 24.9318 22.8969H37.6684V0H0V45.793H87.8371V8.72685H96.3303V22.8969H109.07C110.241 22.8969 111.241 22.5648 112.072 21.9005C112.901 21.1995 113.316 20.3508 113.317 19.3542V8.72685H121.811V22.8969C121.811 24.8892 120.98 26.568 119.319 27.9332C118.653 28.4788 117.909 28.9264 117.111 29.2618L121.811 37.0661H113.317L109.07 29.9833H96.3303V45.7947H133.999V0H46.1629ZM83.987 37.0661H75.4934V29.9833H58.5053V37.0661H50.013V15.8119C50.013 13.8563 50.8247 12.1957 52.4482 10.8301C54.1088 9.42795 56.1283 8.72685 58.5066 8.72685H75.4934C77.8336 8.72685 79.8342 9.42795 81.4951 10.8301C83.1561 12.2323 83.9867 13.8929 83.987 15.8119V37.0661Z" fill="#3089E2"/>
<path d="M3.71553 52.46V59.9145H2.51663V56.9116C2.38475 57.0546 2.21802 57.1626 2.03193 57.2257C1.85927 57.2897 1.67654 57.324 1.49188 57.3269C0.99774 57.3269 0.625556 57.1689 0.375334 56.8531C0.125111 56.5372 0 56.1237 0 55.6125V52.46H1.19891V55.5188C1.19891 55.7672 1.26776 55.9517 1.40548 56.0722C1.53911 56.1917 1.7145 56.2565 1.89557 56.2535C1.98133 56.2567 2.06672 56.2407 2.14514 56.2066C2.22356 56.1725 2.29291 56.1213 2.34786 56.0568C2.46037 55.9248 2.51663 55.7342 2.51663 55.4849V52.46H3.71553Z" fill="#5A656D"/>
<path d="M5.79611 55.6015H7.44101V56.6666H5.79611V58.8495H7.8663V59.9145H4.59766V52.46H7.86585V53.525H5.79566L5.79611 55.6015Z" fill="#5A656D"/>
<path d="M8.26953 58.8624C8.38423 58.864 8.49887 58.8569 8.61246 58.8413C8.69624 58.8307 8.77473 58.7954 8.83748 58.7401C8.90178 58.6756 8.94528 58.5941 8.96259 58.5056C8.99195 58.3707 9.00852 58.2335 9.0121 58.0956L9.20787 52.4619H12.5962V59.9165H11.3744V53.5252H10.3289L10.198 58.0296C10.1764 58.7115 10.0293 59.1981 9.75691 59.4893C9.48449 59.7806 9.0505 59.926 8.45495 59.9257H8.26953V58.8624Z" fill="#5A656D"/>
<path d="M13.292 59.9146C13.3481 59.7802 13.3846 59.6388 13.4005 59.4945C13.4163 59.3336 13.4236 59.1721 13.4225 59.0105V57.8601C13.4225 57.4695 13.4788 57.1375 13.5913 56.8641C13.7038 56.5908 13.9124 56.3938 14.2173 56.2733C13.6946 56.0322 13.4333 55.5281 13.4333 54.7608V54.1748C13.4333 53.5997 13.5731 53.1702 13.8527 52.8863C14.1324 52.6024 14.5845 52.4604 15.2092 52.4604H17.0174V59.915H15.819V56.8795H15.4049C15.1292 56.8795 14.9294 56.9506 14.8055 57.0929C14.6816 57.2351 14.6201 57.48 14.621 57.8276V58.9991C14.621 59.1482 14.6187 59.2727 14.6156 59.3717C14.6132 59.4538 14.6059 59.5356 14.5935 59.6168C14.585 59.6709 14.5722 59.7243 14.5553 59.7765C14.5409 59.8204 14.526 59.8644 14.5103 59.9146H13.292ZM15.2416 53.5251C15.0315 53.5251 14.8773 53.5853 14.7789 53.7059C14.6805 53.8264 14.6315 54.0218 14.6318 54.2919V55.0266C14.6318 55.3248 14.6952 55.5301 14.8221 55.6425C14.949 55.7548 15.1252 55.8114 15.3505 55.8123H15.819V53.5246L15.2416 53.5251Z" fill="#5A656D"/>
<path d="M17.9004 59.9145V52.46H21.2554V53.525H19.0984V55.4308H19.796C20.3984 55.4308 20.8506 55.587 21.1524 55.8993C21.4542 56.2117 21.6042 56.6696 21.6024 57.2732V58.0721C21.6024 58.6757 21.4524 59.1335 21.1524 59.4456C20.8524 59.7576 20.4002 59.9138 19.796 59.9141L17.9004 59.9145ZM19.796 58.8495C19.9844 58.8495 20.1333 58.7999 20.2429 58.7008C20.3513 58.6014 20.4062 58.4166 20.4062 58.1469V57.1993C20.4062 56.9292 20.3513 56.7449 20.2429 56.6454C20.1344 56.546 19.9845 56.4963 19.796 56.4963H19.0984V58.8495H19.796Z" fill="#5A656D"/>
<path d="M23.6412 59.9146H22.4121V52.46H23.4796V57.1778L23.9152 55.5377L24.8959 52.4583H26.2141V59.9128H25.134V54.6649L24.6439 56.4963L23.6412 59.9146Z" fill="#5A656D"/>
<path d="M28.2622 59.9145H27.0615V52.46H28.2622V55.6547H29.6241V52.46H30.8441V59.9145H29.6218V56.7198H28.2622V59.9145Z" fill="#5A656D"/>
<path d="M35.1889 57.1353V58.1255C35.1889 58.7291 35.0389 59.1925 34.7388 59.5157C34.4388 59.8389 33.9939 60.0002 33.404 59.9996C32.8157 59.9996 32.3707 59.8383 32.0692 59.5157C31.7677 59.1931 31.6177 58.7297 31.6192 58.1255V54.2493C31.6192 53.6461 31.7692 53.1827 32.0692 52.8592C32.3692 52.5357 32.8142 52.3744 33.404 52.3752C33.9921 52.3752 34.437 52.5366 34.7388 52.8592C35.0407 53.1818 35.1907 53.6452 35.1889 54.2493V54.9735H34.0557V54.1745C34.0557 53.9047 33.9994 53.7141 33.8869 53.6026C33.7739 53.4927 33.6236 53.4377 33.4346 53.4377C33.2456 53.4377 33.0953 53.4927 32.9846 53.6026C32.8739 53.7126 32.8158 53.9027 32.8158 54.1745V58.2025C32.8158 58.4726 32.8716 58.6605 32.9846 58.767C33.0975 58.8734 33.2478 58.9271 33.4346 58.9271C33.6214 58.9271 33.7739 58.8734 33.8869 58.767C33.9999 58.6605 34.0557 58.4726 34.0557 58.2025V57.1375L35.1889 57.1353Z" fill="#5A656D"/>
<path d="M37.4882 56.9437L37.1179 57.6252V59.9128H35.9189V52.46H37.117V55.7084L38.6862 52.46H39.8843L38.2191 55.7827L39.8843 59.9145H38.6534L37.4882 56.9437Z" fill="#5A656D"/>
<path d="M44.3071 59.9145H43.0979L42.8909 58.5622H41.4201L41.2131 59.9145H40.1123L41.3328 52.46H43.088L44.3071 59.9145ZM41.5727 57.5504H42.7275L42.1501 53.7806L41.5727 57.5504Z" fill="#5A656D"/>
<path d="M44.6436 59.9146C44.6998 59.7802 44.7365 59.6388 44.7525 59.4945C44.7683 59.3336 44.7756 59.1721 44.7745 59.0105V57.8601C44.7745 57.4695 44.8308 57.1375 44.9433 56.8641C45.0558 56.5908 45.2646 56.3938 45.5697 56.2733C45.0471 56.0322 44.7856 55.5281 44.7853 54.7608V54.1748C44.7853 53.5997 44.9251 53.1702 45.2048 52.8863C45.4844 52.6024 45.9364 52.4604 46.5607 52.4604H48.3699V59.915H47.171V56.8795H46.7587C46.4824 56.8795 46.2826 56.9506 46.1593 57.0929C46.036 57.2351 45.9743 57.48 45.9743 57.8276V58.9991C45.9743 59.1482 45.9743 59.2727 45.9689 59.3717C45.9668 59.4538 45.9595 59.5356 45.9469 59.6168C45.9385 59.6709 45.9258 59.7243 45.9086 59.7765C45.8942 59.8204 45.8798 59.8644 45.8636 59.9146H44.6436ZM46.5936 53.5251C46.3836 53.5251 46.2293 53.5853 46.1309 53.7059C46.0325 53.8264 45.9835 54.0218 45.9838 54.2919V55.0266C45.9838 55.3248 46.0472 55.5301 46.1741 55.6425C46.3011 55.7548 46.4773 55.8114 46.7029 55.8123H47.171V53.5246L46.5936 53.5251Z" fill="#5A656D"/>
<path d="M54.8095 59.9145H53.5998L53.3924 58.5622H51.9221L51.7146 59.9145H50.6143L51.8348 52.46H53.5899L54.8095 59.9145ZM52.0751 57.5504H53.2299L52.6547 53.7806L52.0751 57.5504Z" fill="#5A656D"/>
<path d="M57.1303 52.46C57.7333 52.46 58.1819 52.6163 58.4759 52.9289C58.7699 53.2416 58.917 53.6994 58.917 54.3024V55.2702C58.917 55.8738 58.7699 56.3318 58.4759 56.6441C58.1819 56.9565 57.7333 57.1126 57.1303 57.1126H56.5637V59.9132H55.3652V52.46H57.1303ZM56.5637 53.525V56.0493H57.1303C57.3193 56.0493 57.4647 55.9995 57.5664 55.8998C57.6681 55.8 57.7188 55.6154 57.7185 55.3459V54.228C57.7185 53.9579 57.6678 53.7733 57.5664 53.6742C57.465 53.575 57.3196 53.5253 57.1303 53.525H56.5637Z" fill="#5A656D"/>
<path d="M62.0108 57.7532L62.8285 52.46H64.4937V59.9145H63.36V54.569L62.5324 59.9145H61.3996L60.5059 54.6433V59.9145H59.46V52.46H61.1251L62.0108 57.7532Z" fill="#5A656D"/>
<path d="M69.2446 59.9145H68.0349L67.8284 58.5622H66.3572L66.1506 59.9145H65.0498L66.2699 52.46H68.025L69.2446 59.9145ZM66.5102 57.5504H67.665L67.0876 53.7806L66.5102 57.5504Z" fill="#5A656D"/>
<path d="M69.4512 52.46H73.1555V53.525H71.9025V59.9145H70.7045V53.525H69.4512V52.46Z" fill="#5A656D"/>
<path d="M76.3363 58.0195C76.2744 58.3199 76.1852 58.6144 76.0699 58.8994C75.9764 59.1327 75.8313 59.343 75.6451 59.5153C75.4489 59.6844 75.213 59.8033 74.9583 59.8615C74.679 59.9322 74.3322 59.9535 73.9178 59.9253V58.8813C74.2233 58.9031 74.4633 58.8747 74.6379 58.7964C74.8125 58.7181 74.925 58.5441 74.9754 58.2742L74.9858 58.2105L73.3301 52.4597H74.5177L75.1712 55.0047L75.542 56.7517L75.8246 55.0157L76.3696 52.4597H77.6226L76.3363 58.0195Z" fill="#5A656D"/>
<path d="M79.8877 52.46C80.4901 52.46 80.9388 52.6163 81.2337 52.9289C81.5287 53.2416 81.6757 53.6994 81.6748 54.3024V55.2702C81.6748 55.8738 81.5278 56.3318 81.2337 56.6441C80.9397 56.9565 80.491 57.1126 79.8877 57.1126H79.3215V59.9132H78.123V52.46H79.8877ZM79.3215 53.525V56.0493H79.8877C80.0767 56.0493 80.222 55.9995 80.3237 55.8998C80.425 55.8003 80.4768 55.616 80.4768 55.3459V54.228C80.4768 53.9579 80.425 53.7736 80.3237 53.6742C80.2225 53.5747 80.0767 53.525 79.8877 53.525H79.3215Z" fill="#5A656D"/>
<path d="M83.4289 59.9145H82.2305V52.46H83.4289V55.6547H84.7903V52.46H86.0108V59.9145H84.7903V56.7198H83.4289V59.9145Z" fill="#5A656D"/>
<path d="M90.7608 59.9145H89.5515L89.3445 58.5622H87.8738L87.6668 59.9145H86.5664L87.7869 52.46H89.5421L90.7608 59.9145ZM88.0277 57.5504H89.1825L88.6051 53.7806L88.0277 57.5504Z" fill="#5A656D"/>
<path d="M91.0986 59.9146C91.1547 59.7802 91.1914 59.6388 91.2075 59.4945C91.2231 59.3336 91.2305 59.1721 91.2296 59.0105V57.8601C91.2296 57.4695 91.2859 57.1375 91.3984 56.8641C91.5109 56.5908 91.7195 56.3938 92.0244 56.2733C91.5014 56.0322 91.2399 55.5281 91.2399 54.7608V54.1748C91.2399 53.5997 91.3798 53.1702 91.6594 52.8863C91.939 52.6024 92.3912 52.4604 93.0158 52.4604H94.8236V59.915H93.6252V56.8795H93.2111C92.9351 56.8795 92.7354 56.9506 92.6121 57.0929C92.4888 57.2351 92.427 57.48 92.4267 57.8276V58.9991C92.4267 59.1482 92.4267 59.2727 92.4213 59.3717C92.4191 59.4537 92.4119 59.5356 92.3997 59.6168C92.3914 59.6709 92.3786 59.7243 92.3614 59.7765C92.347 59.8204 92.3322 59.8644 92.3164 59.9146H91.0986ZM93.0487 53.5251C92.8386 53.5251 92.6843 53.5853 92.5856 53.7059C92.4879 53.8269 92.4384 54.0222 92.4384 54.2919V55.0266C92.4384 55.3248 92.502 55.5301 92.6292 55.6425C92.7564 55.7548 92.9327 55.8114 93.158 55.8123H93.6261V53.5246L93.0487 53.5251Z" fill="#5A656D"/>
<path d="M98.9532 56.9437L98.5832 57.6252V59.9128H97.3848V52.46H98.5832V55.7084L100.152 52.46H101.349L99.684 55.7827L101.349 59.9145H100.118L98.9532 56.9437Z" fill="#5A656D"/>
<path d="M101.799 54.2493C101.799 53.6461 101.955 53.1827 102.267 52.8592C102.58 52.5357 103.03 52.3744 103.617 52.3752C104.205 52.3752 104.656 52.5366 104.968 52.8592C105.28 53.1818 105.436 53.6452 105.436 54.2493V58.1255C105.436 58.7291 105.28 59.1925 104.968 59.5157C104.656 59.8389 104.205 60.0002 103.617 59.9996C103.029 59.9996 102.579 59.8383 102.267 59.5157C101.956 59.1931 101.799 58.7297 101.799 58.1255V54.2493ZM102.997 58.2003C102.997 58.4704 103.054 58.6611 103.166 58.7722C103.279 58.8827 103.429 58.9372 103.618 58.9372C103.808 58.9372 103.958 58.8827 104.068 58.7722C104.179 58.6618 104.237 58.4726 104.237 58.2003V54.1745C104.237 53.9049 104.181 53.7153 104.068 53.6026C103.955 53.49 103.805 53.4377 103.618 53.4377C103.432 53.4377 103.279 53.4927 103.166 53.6026C103.053 53.7126 102.997 53.9027 102.997 54.1745V58.2003Z" fill="#5A656D"/>
<path d="M108.748 57.7532L109.565 52.46H111.23V59.9145H110.097V54.569L109.27 59.9145H108.137L107.245 54.6433V59.9145H106.198V52.46H107.863L108.748 57.7532Z" fill="#5A656D"/>
<path d="M113.302 59.9145H112.105V52.46H115.886V59.9145H114.665V53.525H113.303L113.302 59.9145Z" fill="#5A656D"/>
<path d="M120.634 59.9145H119.424L119.218 58.5622H117.746L117.54 59.9145H116.439L117.66 52.46H119.415L120.634 59.9145ZM117.899 57.5504H119.054L118.477 53.7806L117.899 57.5504Z" fill="#5A656D"/>
<path d="M122.387 59.9145H121.188V52.46H122.387V55.6547H123.749V52.46H124.969V59.9145H123.749V56.7198H122.387V59.9145Z" fill="#5A656D"/>
<path d="M127.072 59.9146H125.841V52.46H126.908V57.1778L127.344 55.5377L128.325 52.4583H129.642V59.9128H128.562V54.6649L128.072 56.4963L127.072 59.9146Z" fill="#5A656D"/>
<path d="M130.274 59.9146C130.331 59.7802 130.367 59.6388 130.383 59.4945C130.399 59.3336 130.406 59.1721 130.405 59.0105V57.8601C130.405 57.4695 130.461 57.1375 130.574 56.8641C130.686 56.5908 130.895 56.3938 131.2 56.2733C130.677 56.0322 130.416 55.5281 130.416 54.7608V54.1748C130.416 53.5997 130.556 53.1702 130.835 52.8863C131.115 52.6024 131.567 52.4604 132.192 52.4604H134V59.915H132.802V56.8795H132.388C132.111 56.8795 131.912 56.9506 131.789 57.0929C131.665 57.235 131.603 57.48 131.603 57.8276V58.9991C131.603 59.1482 131.603 59.2727 131.598 59.3717C131.596 59.4538 131.588 59.5356 131.576 59.6168C131.568 59.6709 131.555 59.7242 131.538 59.7765C131.523 59.8204 131.509 59.8644 131.493 59.9146H130.274ZM132.224 53.5251C132.014 53.5251 131.86 53.5853 131.761 53.7059C131.663 53.8264 131.614 54.0218 131.614 54.2919V55.0266C131.614 55.3248 131.678 55.5301 131.805 55.6425C131.931 55.7548 132.108 55.8114 132.333 55.8123H132.802V53.5246L132.224 53.5251Z" fill="#5A656D"/>
</g>
<defs>
<clipPath id="clip0_1_651">
<rect width="134" height="60" fill="white"/>
</clipPath>
</defs>
</svg>
