<svg width="20" height="20" viewBox="0 0 20 20" fill="none" xmlns="http://www.w3.org/2000/svg">
<path d="M1.66667 8.33325C1.66667 6.49297 3.15972 4.99992 5 4.99992C6.84028 4.99992 8.33333 6.49297 8.33333 8.33325V14.9999H2.22222C1.91667 14.9999 1.66667 14.7499 1.66667 14.4444V8.33325ZM8.33333 16.6666H10H17.7778C19.0035 16.6666 20 15.6701 20 14.4444V8.33325C20 5.57284 17.7604 3.33325 15 3.33325H5C2.23958 3.33325 0 5.57284 0 8.33325V14.4444C0 15.6701 0.996528 16.6666 2.22222 16.6666H8.33333ZM10 8.33325C10 7.052 9.51736 5.88534 8.72569 4.99992H15C16.8403 4.99992 18.3333 6.49297 18.3333 8.33325V14.4444C18.3333 14.7499 18.0833 14.9999 17.7778 14.9999H10V8.33325ZM3.61111 7.7777C3.14931 7.7777 2.77778 8.14922 2.77778 8.61103C2.77778 9.07283 3.14931 9.44436 3.61111 9.44436H6.38889C6.85069 9.44436 7.22222 9.07283 7.22222 8.61103C7.22222 8.14922 6.85069 7.7777 6.38889 7.7777H3.61111ZM12.5 7.7777C12.0382 7.7777 11.6667 8.14922 11.6667 8.61103C11.6667 9.07283 12.0382 9.44436 12.5 9.44436H14.4444V10.2777C14.4444 10.7395 14.816 11.111 15.2778 11.111H15.8333C16.2951 11.111 16.6667 10.7395 16.6667 10.2777V8.61103C16.6667 8.14922 16.2951 7.7777 15.8333 7.7777H15.2778H12.5Z" fill="#3995EA"/>
</svg>
