<svg width="20" height="20" viewBox="0 0 20 20" fill="none" xmlns="http://www.w3.org/2000/svg">
<path d="M13.9003 10.6232C13.3665 10.3953 12.748 10.5451 12.3801 10.9942L11.2994 12.3156C9.80194 11.4466 8.55191 10.1968 7.68275 8.69967L9.00114 7.62238C9.45037 7.25461 9.60336 6.63622 9.37224 6.10246L7.80971 2.45726C7.56556 1.88444 6.95031 1.56549 6.34157 1.69567L2.69566 2.47679C2.09669 2.60372 1.66699 3.13423 1.66699 3.74935C1.66699 11.2741 7.37024 17.4709 14.6914 18.2488C15.0104 18.2813 15.3294 18.3074 15.6549 18.3204H15.6582C15.8568 18.3269 16.0521 18.3334 16.2506 18.3334C16.8659 18.3334 17.3965 17.9038 17.5235 17.3049L18.3047 13.6597C18.4349 13.0511 18.1159 12.436 17.543 12.1919L13.8971 10.6297L13.9003 10.6232ZM16.0391 16.7679C9.01741 16.654 3.34346 10.9812 3.23278 3.96091L6.46202 3.26767L7.86179 6.53533L6.69314 7.4922C6.10068 7.97714 5.94769 8.82009 6.33181 9.48404C7.33769 11.2188 8.78303 12.6638 10.5181 13.6695C11.1822 14.0536 12.0253 13.9006 12.5103 13.3082L13.4674 12.1398L16.7357 13.5393L16.0391 16.7679Z" fill="#3995EA"/>
</svg>
