<svg width="24" height="24" viewBox="0 0 24 24" fill="none" xmlns="http://www.w3.org/2000/svg">
<path d="M16.3736 10.1264C16.3736 8.4685 15.7152 6.87852 14.5432 5.70622C13.3712 4.53391 11.7816 3.87532 10.1242 3.87532C8.46677 3.87532 6.87721 4.53391 5.70522 5.70622C4.53323 6.87852 3.87482 8.4685 3.87482 10.1264C3.87482 11.7843 4.53323 13.3743 5.70522 14.5466C6.87721 15.7189 8.46677 16.3775 10.1242 16.3775C11.7816 16.3775 13.3712 15.7189 14.5432 14.5466C15.7152 13.3743 16.3736 11.7843 16.3736 10.1264ZM15.1667 16.4986C13.784 17.5964 12.0303 18.2528 10.1242 18.2528C5.63636 18.2528 2 14.6154 2 10.1264C2 5.63734 5.63636 2 10.1242 2C14.612 2 18.2484 5.63734 18.2484 10.1264C18.2484 12.033 17.5922 13.7872 16.4947 15.1702L21.7246 20.4016C22.0918 20.7688 22.0918 21.3627 21.7246 21.726C21.3575 22.0894 20.7638 22.0933 20.4005 21.726L15.1667 16.4986Z" fill="url(#paint0_linear_1_729)"/>
<defs>
<linearGradient id="paint0_linear_1_729" x1="12" y1="2" x2="12" y2="22" gradientUnits="userSpaceOnUse">
<stop stop-color="white"/>
<stop offset="1" stop-color="white" stop-opacity="0.74"/>
</linearGradient>
</defs>
</svg>
