<svg width="20" height="20" viewBox="0 0 20 20" fill="none" xmlns="http://www.w3.org/2000/svg">
<path d="M16.7712 10.0001C16.7712 11.7958 16.0578 13.518 14.788 14.7878C13.5183 16.0576 11.7961 16.7709 10.0003 16.7709C8.20459 16.7709 6.4824 16.0576 5.21262 14.7878C3.94285 13.518 3.22949 11.7958 3.22949 10.0001C3.22949 8.20435 3.94285 6.48216 5.21262 5.21238C6.4824 3.9426 8.20459 3.22925 10.0003 3.22925C11.7961 3.22925 13.5183 3.9426 14.788 5.21238C16.0578 6.48216 16.7712 8.20435 16.7712 10.0001ZM1.66699 10.0001C1.66699 12.2102 2.54497 14.3298 4.10777 15.8926C5.67057 17.4554 7.79019 18.3334 10.0003 18.3334C12.2105 18.3334 14.3301 17.4554 15.8929 15.8926C17.4557 14.3298 18.3337 12.2102 18.3337 10.0001C18.3337 7.78994 17.4557 5.67033 15.8929 4.10753C14.3301 2.54472 12.2105 1.66675 10.0003 1.66675C7.79019 1.66675 5.67057 2.54472 4.10777 4.10753C2.54497 5.67033 1.66699 7.78994 1.66699 10.0001ZM9.21908 5.573V8.54175L7.30827 7.26571C6.9502 7.02482 6.46517 7.12248 6.22428 7.48381C5.9834 7.84513 6.08105 8.3269 6.44238 8.56779L9.56738 10.6511C9.80827 10.8106 10.1143 10.8269 10.3682 10.6902C10.6221 10.5535 10.7816 10.2898 10.7816 10.0001V5.573C10.7816 5.14006 10.4333 4.79175 10.0003 4.79175C9.56738 4.79175 9.21908 5.14006 9.21908 5.573Z" fill="#3995EA"/>
</svg>
